<?xml version="1.0" standalone="no"?>
<!DOCTYPE svg PUBLIC "-//W3C//DTD SVG 20010904//EN"
 "http://www.w3.org/TR/2001/REC-SVG-20010904/DTD/svg10.dtd">
<svg version="1.0" xmlns="http://www.w3.org/2000/svg"
 width="322.000000pt" height="429.000000pt" viewBox="0 0 322.000000 429.000000"
 preserveAspectRatio="xMidYMid meet">

<g transform="translate(0.000000,429.000000) scale(0.100000,-0.100000)"
fill="#000000" stroke="none">
<path d="M1087 4279 c-401 -33 -679 -146 -799 -325 -42 -62 -64 -125 -79 -229
-13 -88 -8 -138 43 -415 38 -206 42 -239 42 -395 0 -116 -5 -208 -18 -290 -16
-106 -24 -129 -62 -195 -227 -395 -275 -894 -128 -1328 162 -479 529 -853
1003 -1022 177 -63 288 -80 527 -80 228 0 329 14 499 71 128 43 314 138 425
216 116 83 295 261 371 368 162 229 262 477 300 743 15 109 7 431 -15 532 -38
181 -107 368 -185 503 -57 97 -76 218 -75 482 0 189 2 210 38 390 46 232 56
386 32 489 -68 287 -350 442 -881 486 -141 11 -896 11 -1038 -1z m963 -439
c274 -10 298 -12 339 -33 71 -35 86 -75 85 -222 -2 -107 -6 -138 -44 -280 -23
-88 -47 -179 -52 -201 l-11 -41 -91 42 c-108 51 -219 87 -358 117 -152 32
-446 33 -605 0 -138 -28 -240 -61 -360 -117 l-93 -44 -10 42 c-6 23 -24 88
-40 145 -43 151 -60 253 -60 356 1 142 41 207 137 222 135 20 758 28 1163 14z
m-996 -900 c19 -7 36 -32 65 -95 22 -47 64 -122 94 -167 57 -88 155 -208 169
-208 4 0 8 101 8 224 0 221 0 225 22 240 84 59 112 -41 112 -404 1 -256 -5
-308 -46 -397 -21 -45 -44 -59 -83 -49 -41 11 -46 33 -29 157 l14 113 -63 66
c-67 68 -131 149 -186 238 -18 28 -36 52 -39 52 -10 0 7 -384 22 -484 16 -109
11 -132 -29 -142 -57 -14 -83 16 -112 133 -14 56 -18 114 -18 318 0 254 10
343 41 393 16 25 22 26 58 12z m1061 -25 c125 -61 195 -201 195 -390 0 -249
-127 -427 -315 -443 -133 -10 -243 56 -309 188 -47 94 -59 163 -54 290 9 194
88 321 231 372 72 26 180 19 252 -17z m-261 -891 c50 -49 -24 -124 -76 -77
-36 33 -13 93 37 93 13 0 31 -7 39 -16z m-989 -119 c14 -13 25 -29 25 -35 0
-6 15 -1 33 12 24 17 46 23 85 23 46 0 57 -4 78 -28 13 -15 29 -47 35 -71 l10
-42 50 -1 c49 -1 50 0 66 38 41 103 175 142 227 67 13 -18 14 -18 24 11 9 27
16 31 46 31 27 0 40 -6 52 -25 14 -21 15 -39 5 -142 -11 -127 -5 -180 21 -197
14 -8 23 -4 48 19 37 36 56 99 65 218 5 68 11 93 26 108 24 24 50 24 79 1 22
-18 22 -19 10 -144 -18 -189 6 -249 73 -182 37 36 55 102 63 227 8 134 23 155
88 125 31 -13 40 -38 32 -86 l-6 -37 16 30 c55 102 147 130 198 61 19 -25 21
-42 21 -166 0 -120 2 -142 18 -157 13 -14 21 -15 35 -7 26 16 60 82 73 142 13
55 24 71 40 55 13 -13 -23 -136 -55 -183 -48 -72 -128 -90 -182 -39 -34 32
-44 78 -44 200 0 121 -11 145 -48 106 -36 -38 -63 -115 -76 -214 -10 -81 -15
-98 -34 -111 -34 -22 -72 -2 -72 38 0 16 -2 30 -5 30 -3 0 -19 -16 -36 -35
-39 -44 -84 -54 -135 -29 -22 11 -44 33 -53 51 -18 37 -27 41 -35 15 -4 -10
-20 -32 -37 -48 -59 -56 -149 -32 -183 50 l-12 30 -27 -46 c-15 -27 -38 -50
-56 -58 -84 -34 -181 59 -181 173 l0 47 -50 0 c-46 0 -50 -2 -50 -23 0 -42
-30 -114 -63 -151 -43 -48 -113 -68 -151 -43 -60 39 -34 129 54 193 48 35 50
38 44 73 -17 98 -70 106 -116 18 -18 -36 -22 -67 -30 -227 -4 -102 -5 -229 -2
-282 4 -53 4 -108 0 -123 -8 -33 -53 -52 -73 -32 -21 21 -33 172 -32 417 0
252 9 357 29 370 25 16 50 11 75 -15z m644 -491 c12 -15 21 -32 21 -38 0 -13
88 -148 124 -191 l26 -30 0 127 c0 103 3 130 16 143 43 42 62 -29 63 -230 0
-170 -16 -247 -55 -253 -36 -5 -45 18 -35 89 l9 64 -43 46 c-23 25 -60 72 -81
104 l-39 59 -3 -55 c-2 -30 2 -107 8 -173 10 -99 10 -120 -1 -127 -38 -24 -62
7 -78 95 -21 116 -9 347 20 382 16 20 25 18 48 -12z m557 15 c112 -29 174
-186 130 -333 -48 -158 -213 -207 -313 -93 -56 64 -79 195 -51 289 16 56 79
124 125 136 52 14 58 14 109 1z m-819 -409 c29 -11 53 -45 53 -76 0 -29 -31
-74 -63 -91 -17 -9 -54 -20 -82 -23 l-50 -5 -8 -60 c-9 -76 7 -150 38 -171 43
-28 73 6 104 121 16 59 17 60 53 63 33 3 38 0 44 -23 4 -15 4 -67 0 -117 -6
-84 -6 -89 11 -79 34 18 93 84 93 105 0 34 38 101 69 119 41 24 103 22 126 -3
l19 -21 13 26 c16 30 46 32 73 5 18 -18 19 -29 14 -142 -5 -98 -3 -127 8 -142
12 -16 18 -17 37 -6 33 17 58 84 66 175 10 108 17 125 54 125 34 0 65 -26 56
-48 -13 -34 -18 -218 -6 -240 37 -69 110 48 112 181 2 92 10 121 36 125 41 6
63 -15 63 -61 1 -36 2 -39 12 -22 20 38 61 74 89 80 68 15 102 -45 98 -175 -1
-47 -1 -95 -1 -106 3 -32 31 -38 59 -12 20 18 30 45 60 147 2 10 7 11 14 4 13
-13 -6 -94 -33 -144 -33 -59 -99 -85 -149 -59 -36 20 -49 63 -49 167 0 122
-10 141 -49 95 -32 -37 -50 -89 -57 -165 -9 -86 -13 -96 -39 -103 -32 -8 -55
11 -55 43 0 24 -1 23 -34 -11 -44 -47 -94 -50 -135 -8 -15 15 -31 34 -34 42
-6 13 -8 13 -14 0 -3 -8 -19 -27 -34 -42 -49 -49 -126 -31 -154 35 l-13 31
-16 -32 c-47 -91 -153 -78 -191 22 -10 25 -21 46 -25 46 -4 0 -15 -9 -25 -20
-10 -12 -34 -30 -52 -41 -18 -11 -33 -28 -33 -38 0 -31 -32 -115 -57 -149 -19
-25 -31 -32 -58 -32 -71 0 -90 77 -32 134 17 18 41 37 51 43 16 9 21 24 23 79
l4 69 -20 -37 c-50 -90 -118 -100 -183 -28 -47 53 -65 126 -50 214 5 34 8 63
6 65 -2 2 -37 6 -77 9 -67 4 -75 2 -104 -22 -17 -15 -34 -40 -38 -56 -8 -36
10 -96 33 -109 25 -14 52 5 52 38 0 33 20 54 44 45 25 -9 31 -50 12 -80 -58
-87 -170 -32 -168 82 0 52 20 87 65 115 28 18 43 20 118 15 l87 -6 12 31 c22
53 98 105 171 118 3 1 20 -4 36 -9z m711 -116 c32 -22 26 -65 -10 -78 -19 -7
-31 -6 -42 4 -22 17 -20 66 2 79 23 14 24 14 50 -5z"/>
<path d="M1936 2849 c-98 -28 -165 -201 -153 -399 9 -146 43 -234 110 -284 42
-31 115 -28 160 7 121 92 145 421 44 588 -48 79 -99 107 -161 88z"/>
<path d="M1370 1808 c-14 -30 -20 -66 -20 -120 0 -122 29 -162 80 -108 72 77
61 270 -16 270 -20 0 -29 -9 -44 -42z"/>
<path d="M969 1663 c-55 -46 -73 -123 -29 -123 23 0 45 27 58 70 26 90 23 96
-29 53z"/>
<path d="M1956 1350 c-33 -40 -46 -89 -46 -174 0 -126 37 -196 105 -196 44 0
76 31 94 90 15 51 16 155 1 209 -26 97 -102 132 -154 71z"/>
<path d="M1210 973 c-32 -12 -90 -81 -90 -108 0 -13 78 -3 107 14 31 19 52 69
38 91 -7 11 -30 12 -55 3z"/>
<path d="M1576 747 c-24 -19 -36 -63 -36 -137 0 -53 4 -73 20 -91 l20 -24 25
28 c43 48 58 143 30 196 -17 34 -38 44 -59 28z"/>
<path d="M1206 439 c-34 -27 -49 -55 -41 -79 15 -46 54 -6 68 68 4 17 5 32 3
32 -2 0 -15 -9 -30 -21z"/>
</g>
</svg>
